<?xml version="1.0" encoding="UTF-8" standalone="no"?>
<!DOCTYPE svg PUBLIC "-//W3C//DTD SVG 1.1//EN" "http://www.w3.org/Graphics/SVG/1.1/DTD/svg11.dtd">
<svg width="100%" height="100%" viewBox="0 0 214 214" version="1.1" xmlns="http://www.w3.org/2000/svg" xmlns:xlink="http://www.w3.org/1999/xlink" xml:space="preserve" xmlns:serif="http://www.serif.com/" style="fill-rule:evenodd;clip-rule:evenodd;stroke-linejoin:round;stroke-miterlimit:2;">
    <g transform="matrix(3.407728,0,0,2.411558,4.768163,39.099815)">
        <path d="M30.082,1.681C49.142,1.681 55.963,27.542 55.963,27.542C56.051,27.877 56.06,28.244 55.987,28.586C55.987,28.586 50.49,54.631 30,54.631C9.51,54.631 4.013,28.586 4.013,28.586C3.939,28.239 3.949,27.868 4.04,27.529C4.04,27.529 11.031,1.681 30.082,1.681ZM30.082,4.966C14.157,4.966 7.433,24.68 6.366,28.175C7.249,31.681 12.962,51.347 30,51.347C47.049,51.347 52.759,31.654 53.636,28.167C52.598,24.69 46.007,4.966 30.082,4.966Z"/>
    </g>
    <g transform="matrix(1.317294,0,0,1.317294,67.48117,69.964689)">
        <path d="M17.135,6.826C20.89,4.551 25.293,3.241 30,3.241C43.728,3.241 54.874,14.386 54.874,28.115C54.874,33.059 53.429,37.668 50.937,41.542L37.754,35.325L44.036,48.648C40.04,51.386 35.206,52.989 30,52.989C16.272,52.989 5.126,41.843 5.126,28.115C5.126,23.354 6.466,18.904 8.79,15.122L24.73,22.37L17.135,6.826Z"/>
    </g>
    <g transform="matrix(0.342823,0,0,0.342823,151.515271,97.361632)">
        <circle cx="30" cy="28.115" r="24.874"/>
    </g>
    <g transform="matrix(0.342823,0,0,0.342823,42.226597,97.361632)">
        <circle cx="30" cy="28.115" r="24.874"/>
    </g>
    <g transform="matrix(0,0.342823,-0.342823,0,116.917734,140.965888)">
        <circle cx="30" cy="28.115" r="24.874"/>
    </g>
    <g transform="matrix(0,0.342823,-0.342823,0,116.917734,52.093514)">
        <circle cx="30" cy="28.115" r="24.874"/>
    </g>
</svg>
